<svg xmlns="http://www.w3.org/2000/svg" version="1.1" xmlns:xlink="http://www.w3.org/1999/xlink" viewBox="0 0 200 200" width="200" height="200"><rect width="200" height="200" fill="url('#gradient')"></rect><defs><linearGradient id="gradient" gradientTransform="rotate(45 0.5 0.5)"><stop offset="0%" stop-color="#d3cdbf"></stop><stop offset="100%" stop-color="#d9e241"></stop></linearGradient></defs><g><g fill="#1b3855" transform="matrix(2.1016779919567328,0,0,2.1016779919567328,23.746943715140745,114.73448120044978)" stroke="#0e5278" stroke-width="0"><path d="M9.89-8.57L9.89-6.03L4.50-6.03L4.50-2.64L10.87-2.64L10.87 0L1.07 0L1.07-14.22L10.89-14.22L10.89-11.57L4.50-11.57L4.50-8.57L9.89-8.57ZM23.53-7.40L23.53-4.85L17.66-4.85L17.66-7.40L23.53-7.40ZM33.92-14.22L36.74-3.87L39.57-14.22L43.40-14.22L38.61 0L34.86 0L30.12-14.22L33.92-14.22ZM43.43-4.82L43.42-5.38Q43.42-6.96 44.03-8.20Q44.65-9.43 45.80-10.10Q46.95-10.76 48.51-10.76L48.51-10.76Q50.88-10.76 52.25-9.29Q53.61-7.82 53.61-5.29L53.61-5.29L53.61-5.18Q53.61-2.71 52.24-1.25Q50.87 0.20 48.53 0.20L48.53 0.20Q46.27 0.20 44.90-1.16Q43.54-2.51 43.43-4.82L43.43-4.82ZM46.72-5.77L46.71-5.18Q46.71-3.71 47.17-3.03Q47.63-2.34 48.53-2.34L48.53-2.34Q50.28-2.34 50.32-5.05L50.32-5.05L50.32-5.38Q50.32-8.22 48.51-8.22L48.51-8.22Q46.86-8.22 46.72-5.77L46.72-5.77ZM55.61-13.19L58.90-13.19L58.90-10.57L60.63-10.57L60.63-8.28L58.90-8.28L58.90-3.45Q58.90-2.85 59.11-2.62Q59.33-2.38 59.96-2.38L59.96-2.38Q60.45-2.38 60.78-2.44L60.78-2.44L60.78-0.09Q59.89 0.20 58.93 0.20L58.93 0.20Q57.23 0.20 56.42-0.61Q55.61-1.41 55.61-3.04L55.61-3.04L55.61-8.28L54.26-8.28L54.26-10.57L55.61-10.57L55.61-13.19ZM67.04 0.20L67.04 0.20Q64.61 0.20 63.11-1.25Q61.60-2.71 61.60-5.03L61.60-5.03L61.60-5.30Q61.60-6.92 62.20-8.16Q62.80-9.40 63.96-10.08Q65.11-10.76 66.69-10.76L66.69-10.76Q68.92-10.76 70.21-9.38Q71.49-8.00 71.49-5.53L71.49-5.53L71.49-4.25L64.95-4.25Q65.13-3.36 65.72-2.85Q66.32-2.34 67.27-2.34L67.27-2.34Q68.83-2.34 69.71-3.44L69.71-3.44L71.21-1.66Q70.60-0.81 69.47-0.31Q68.34 0.20 67.04 0.20ZM66.67-8.22L66.67-8.22Q65.22-8.22 64.95-6.31L64.95-6.31L68.27-6.31L68.27-6.56Q68.29-7.35 67.87-7.79Q67.45-8.22 66.67-8.22Z"></path></g></g></svg>